<mxfile host="app.diagrams.net" modified="2023-10-20T08:28:38.247Z" agent="Mozilla/5.0 (Windows NT 10.0; Win64; x64) AppleWebKit/537.36 (KHTML, like Gecko) Chrome/117.0.0.0 Safari/537.36" etag="Rd595qDEmQ-3SKJcdGDp" version="22.0.5" type="github">
  <diagram name="第 1 页" id="t0qDNlcdImVrv7-gOnrP">
    <mxGraphModel dx="1034" dy="600" grid="1" gridSize="10" guides="1" tooltips="1" connect="1" arrows="1" fold="1" page="1" pageScale="1" pageWidth="827" pageHeight="1169" math="0" shadow="0">
      <root>
        <mxCell id="0" />
        <mxCell id="1" parent="0" />
        <mxCell id="RQant5lzru7LfX8wORix-4" style="edgeStyle=orthogonalEdgeStyle;rounded=0;orthogonalLoop=1;jettySize=auto;html=1;exitX=0.5;exitY=1;exitDx=0;exitDy=0;entryX=0.5;entryY=0;entryDx=0;entryDy=0;" edge="1" parent="1" source="RQant5lzru7LfX8wORix-1" target="RQant5lzru7LfX8wORix-2">
          <mxGeometry relative="1" as="geometry" />
        </mxCell>
        <mxCell id="RQant5lzru7LfX8wORix-1" value="应用层SOMEIP" style="rounded=0;whiteSpace=wrap;html=1;fillColor=#d5e8d4;strokeColor=#82b366;" vertex="1" parent="1">
          <mxGeometry x="200" y="160" width="120" height="60" as="geometry" />
        </mxCell>
        <mxCell id="RQant5lzru7LfX8wORix-5" style="edgeStyle=orthogonalEdgeStyle;rounded=0;orthogonalLoop=1;jettySize=auto;html=1;exitX=0.5;exitY=1;exitDx=0;exitDy=0;entryX=0.5;entryY=0;entryDx=0;entryDy=0;" edge="1" parent="1" source="RQant5lzru7LfX8wORix-2" target="RQant5lzru7LfX8wORix-3">
          <mxGeometry relative="1" as="geometry" />
        </mxCell>
        <mxCell id="RQant5lzru7LfX8wORix-2" value="传输层UDP" style="rounded=0;whiteSpace=wrap;html=1;fillColor=#ffe6cc;strokeColor=#d79b00;" vertex="1" parent="1">
          <mxGeometry x="200" y="240" width="120" height="60" as="geometry" />
        </mxCell>
        <mxCell id="RQant5lzru7LfX8wORix-7" style="edgeStyle=orthogonalEdgeStyle;rounded=0;orthogonalLoop=1;jettySize=auto;html=1;exitX=0.5;exitY=1;exitDx=0;exitDy=0;" edge="1" parent="1" source="RQant5lzru7LfX8wORix-3" target="RQant5lzru7LfX8wORix-6">
          <mxGeometry relative="1" as="geometry" />
        </mxCell>
        <mxCell id="RQant5lzru7LfX8wORix-3" value="网络层IP" style="rounded=0;whiteSpace=wrap;html=1;fillColor=#fff2cc;strokeColor=#d6b656;" vertex="1" parent="1">
          <mxGeometry x="200" y="320" width="120" height="60" as="geometry" />
        </mxCell>
        <mxCell id="RQant5lzru7LfX8wORix-6" value="网络接口层（母鸡）" style="rounded=0;whiteSpace=wrap;html=1;fillColor=#fff2cc;strokeColor=#d6b656;" vertex="1" parent="1">
          <mxGeometry x="200" y="400" width="120" height="60" as="geometry" />
        </mxCell>
      </root>
    </mxGraphModel>
  </diagram>
</mxfile>
